<svg width="24" height="24" viewBox="0 0 24 24" fill="none" xmlns="http://www.w3.org/2000/svg">
<rect width="24" height="24" rx="12" fill="#2A2A2A"/>
<path d="M17.8479 13.3481C16.8565 13.5755 15.8235 13.5473 14.8459 13.2663C13.8684 12.9852 12.9782 12.4604 12.2589 11.7411C11.5396 11.0219 11.0149 10.1317 10.7338 9.15412C10.4527 8.17653 10.4246 7.14356 10.652 6.15212L10.6519 6.1521C9.60814 6.39288 8.64782 6.90868 7.8707 7.64595C7.09357 8.38321 6.52797 9.31506 6.23261 10.3447C5.93725 11.3744 5.92291 12.4644 6.19107 13.5015C6.45923 14.5386 7.00012 15.485 7.75758 16.2425C8.51503 16.9999 9.46144 17.5408 10.4985 17.809C11.5356 18.0772 12.6256 18.0628 13.6553 17.7675C14.685 17.4721 15.6168 16.9065 16.3541 16.1294C17.0914 15.3523 17.6072 14.3919 17.848 13.3481L17.8479 13.3481Z" stroke="white" stroke-width="1.5" stroke-linecap="round" stroke-linejoin="round"/>
</svg>
