<svg width="24" height="24" viewBox="0 0 24 24" fill="none" xmlns="http://www.w3.org/2000/svg">
<path d="M12.0002 17.2501C14.8997 17.2501 17.2502 14.8996 17.2502 12.0001C17.2502 9.10057 14.8997 6.75006 12.0002 6.75006C9.10075 6.75006 6.75024 9.10057 6.75024 12.0001C6.75024 14.8996 9.10075 17.2501 12.0002 17.2501Z" stroke="#2A2A2A" stroke-linecap="round" stroke-linejoin="round"/>
<path d="M5.23022 16.7746L5.11801 18.5151C5.10995 18.6266 5.12659 18.7385 5.16673 18.8429C5.20687 18.9473 5.26952 19.0415 5.35024 19.1189C6.42895 20.1421 7.73431 20.8957 9.15978 21.3183C9.26716 21.3495 9.3801 21.3567 9.49056 21.3393C9.60102 21.3218 9.70628 21.2803 9.79884 21.2175L11.25 20.2502H12.75L14.2012 21.2176C14.2937 21.2803 14.399 21.3219 14.5094 21.3393C14.6199 21.3567 14.7328 21.3496 14.8402 21.3184C16.2657 20.8958 17.571 20.1421 18.6497 19.1189C18.7305 19.0415 18.7931 18.9473 18.8333 18.8429C18.8734 18.7386 18.89 18.6266 18.882 18.5151L18.7698 16.7747L19.5198 15.4756L21.0832 14.7026C21.1838 14.6538 21.2724 14.5834 21.3427 14.4965C21.4131 14.4095 21.4634 14.3081 21.49 14.1995C21.8368 12.7538 21.8368 11.2465 21.49 9.80069C21.4633 9.69209 21.4131 9.5907 21.3427 9.50375C21.2724 9.4168 21.1838 9.34642 21.0832 9.29763L19.5199 8.52459L18.7699 7.22555L18.8821 5.48509C18.8901 5.37356 18.8735 5.26162 18.8333 5.15724C18.7932 5.05287 18.7305 4.95863 18.6498 4.88124C17.5711 3.85805 16.2658 3.10441 14.8403 2.68182C14.7329 2.65061 14.62 2.64347 14.5095 2.66089C14.3991 2.67831 14.2938 2.71987 14.2012 2.78261L12.7501 3.74998H11.2501L9.79892 2.78257C9.70636 2.71983 9.6011 2.67827 9.49064 2.66084C9.38018 2.64342 9.26724 2.65056 9.15986 2.68176C7.73439 3.10437 6.42904 3.85802 5.35033 4.88122C5.26962 4.95861 5.20695 5.05284 5.16681 5.15721C5.12667 5.26159 5.11003 5.37352 5.11808 5.48506L5.23028 7.22546L4.48028 8.5245L2.91689 9.29756C2.81627 9.34635 2.72765 9.41672 2.65733 9.50367C2.58701 9.59062 2.53673 9.692 2.51006 9.8006C2.16331 11.2464 2.16331 12.7537 2.51008 14.1995C2.53674 14.3081 2.58702 14.4094 2.65734 14.4964C2.72765 14.5834 2.81628 14.6537 2.91689 14.7025L4.48022 15.4756L5.23022 16.7746Z" stroke="#2A2A2A" stroke-linecap="round" stroke-linejoin="round"/>
</svg>
