<svg width="24" height="24" viewBox="0 0 24 24" fill="none" xmlns="http://www.w3.org/2000/svg">
<path d="M12 18.75C12.6213 18.75 13.125 18.2463 13.125 17.625C13.125 17.0037 12.6213 16.5 12 16.5C11.3787 16.5 10.875 17.0037 10.875 17.625C10.875 18.2463 11.3787 18.75 12 18.75Z" stroke="#2a2a2a" stroke-width="1.5" stroke-linecap="round" stroke-linejoin="round"/>
<path d="M12 15.75V8.625" stroke="#2a2a2a" stroke-width="1.5" stroke-linecap="round" stroke-linejoin="round"/>
<path d="M8.25 14.5102V5.25C8.25 4.25544 8.64509 3.30161 9.34835 2.59835C10.0516 1.89509 11.0054 1.5 12 1.5C12.9946 1.5 13.9484 1.89509 14.6517 2.59835C15.3549 3.30161 15.75 4.25544 15.75 5.25V14.5101L15.7502 14.51C16.3417 15.2223 16.7183 16.0883 16.8357 17.0067C16.9531 17.9251 16.8065 18.858 16.4131 19.6961C16.0197 20.5343 15.3957 21.2431 14.6142 21.7396C13.8327 22.2361 12.9259 22.4998 12 22.4998C11.0741 22.4998 10.1674 22.2361 9.38587 21.7396C8.60435 21.2431 7.98038 20.5344 7.58696 19.6962C7.19355 18.858 7.04696 17.9252 7.16434 17.0068C7.28172 16.0883 7.65823 15.2223 8.2498 14.5101L8.25 14.5102Z" stroke="#2a2a2a" stroke-width="1.5" stroke-linecap="round" stroke-linejoin="round"/>
</svg>
