<svg width="24" height="24" viewBox="0 0 24 24" fill="none" xmlns="http://www.w3.org/2000/svg">
<path d="M17.9047 18.9654C18.1976 19.2583 18.6725 19.2583 18.9654 18.9654C19.2583 18.6725 19.2583 18.1976 18.9654 17.9047L17.9047 18.9654ZM5.53036 4.4697C5.23747 4.17681 4.76259 4.17681 4.4697 4.4697C4.17681 4.76259 4.17681 5.23747 4.4697 5.53036L5.53036 4.4697ZM18.9654 17.9047L5.53036 4.4697L4.4697 5.53036L17.9047 18.9654L18.9654 17.9047Z" fill="#2A2A2A"/>
<path d="M4.46967 17.9047C4.17678 18.1976 4.17678 18.6725 4.46967 18.9654C4.76256 19.2583 5.23744 19.2583 5.53033 18.9654L4.46967 17.9047ZM18.9654 5.53036C19.2583 5.23747 19.2583 4.76259 18.9654 4.4697C18.6725 4.17681 18.1976 4.17681 17.9047 4.4697L18.9654 5.53036ZM5.53033 18.9654L18.9654 5.53036L17.9047 4.4697L4.46967 17.9047L5.53033 18.9654Z" fill="#2A2A2A"/>
</svg>
