<svg width="24" height="24" viewBox="0 0 24 24" fill="none" xmlns="http://www.w3.org/2000/svg">
<path d="M12 22.5L14.4609 18.75" stroke="white" stroke-width="1.5" stroke-linecap="round" stroke-linejoin="round"/>
<path d="M9.25781 19.5L12.2109 15" stroke="white" stroke-width="1.5" stroke-linecap="round" stroke-linejoin="round"/>
<path d="M8.25 8.625C8.25 7.36415 8.62389 6.13161 9.32438 5.08324C10.0249 4.03488 11.0205 3.21778 12.1854 2.73527C13.3503 2.25276 14.6321 2.12652 15.8687 2.3725C17.1053 2.61848 18.2412 3.22564 19.1328 4.1172C20.0244 5.00876 20.6315 6.14467 20.8775 7.3813C21.1235 8.61793 20.9972 9.89973 20.5147 11.0646C20.0322 12.2295 19.2151 13.2251 18.1668 13.9256C17.1184 14.6261 15.8859 15 14.625 15H7.125C6.52607 14.9995 5.93443 14.8686 5.39121 14.6163C4.84798 14.3641 4.3662 13.9966 3.97935 13.5393C3.5925 13.0821 3.30986 12.5461 3.15107 11.9686C2.99228 11.3911 2.96116 10.786 3.05986 10.1952C3.15856 9.60448 3.38473 9.04231 3.72263 8.5478C4.06053 8.05329 4.50206 7.63829 5.01654 7.33164C5.53102 7.025 6.1061 6.83407 6.70182 6.77213C7.29754 6.71018 7.89961 6.7787 8.46617 6.97293" stroke="white" stroke-width="1.5" stroke-linecap="round" stroke-linejoin="round"/>
</svg>
