<svg width="24" height="24" viewBox="0 0 24 24" fill="none" xmlns="http://www.w3.org/2000/svg">
<path d="M12.0002 17.25C14.8997 17.25 17.2502 14.8995 17.2502 12C17.2502 9.10051 14.8997 6.75 12.0002 6.75C9.10075 6.75 6.75024 9.10051 6.75024 12C6.75024 14.8995 9.10075 17.25 12.0002 17.25Z" stroke="white" stroke-linecap="round" stroke-linejoin="round"/>
<path d="M5.23034 16.7747L5.11813 18.5151C5.11008 18.6266 5.12671 18.7386 5.16685 18.843C5.20699 18.9473 5.26965 19.0416 5.35036 19.119C6.42908 20.1422 7.73443 20.8958 9.1599 21.3184C9.26728 21.3496 9.38022 21.3567 9.49068 21.3393C9.60114 21.3219 9.7064 21.2803 9.79897 21.2176L11.2501 20.2502H12.7501L14.2013 21.2176C14.2938 21.2804 14.3991 21.3219 14.5096 21.3394C14.62 21.3568 14.733 21.3496 14.8403 21.3184C16.2658 20.8958 17.5712 20.1422 18.6499 19.119C18.7306 19.0416 18.7932 18.9474 18.8334 18.843C18.8735 18.7386 18.8902 18.6267 18.8821 18.5152L18.7699 16.7747L19.5199 15.4757L21.0833 14.7027C21.1839 14.6539 21.2726 14.5835 21.3429 14.4965C21.4132 14.4096 21.4635 14.3082 21.4901 14.1996C21.8369 12.7538 21.8369 11.2465 21.4901 9.80075C21.4635 9.69215 21.4132 9.59076 21.3429 9.50381C21.2725 9.41686 21.1839 9.34648 21.0833 9.29769L19.52 8.52465L18.77 7.22561L18.8822 5.48515C18.8902 5.37362 18.8736 5.26168 18.8335 5.15731C18.7933 5.05293 18.7307 4.95869 18.65 4.8813C17.5712 3.85811 16.2659 3.10447 14.8404 2.68188C14.733 2.65068 14.6201 2.64353 14.5096 2.66095C14.3992 2.67837 14.2939 2.71993 14.2013 2.78267L12.7502 3.75004H11.2502L9.79904 2.78263C9.70648 2.71989 9.60122 2.67833 9.49076 2.6609C9.3803 2.64348 9.26736 2.65062 9.15998 2.68183C7.73451 3.10443 6.42916 3.85808 5.35046 4.88128C5.26974 4.95867 5.20708 5.0529 5.16693 5.15728C5.12679 5.26165 5.11015 5.37359 5.11821 5.48512L5.2304 7.22552L4.4804 8.52456L2.91701 9.29762C2.81639 9.34641 2.72777 9.41678 2.65745 9.50373C2.58713 9.59068 2.53685 9.69206 2.51018 9.80066C2.16343 11.2465 2.16344 12.7537 2.5102 14.1995C2.53686 14.3081 2.58714 14.4095 2.65746 14.4965C2.72777 14.5834 2.8164 14.6538 2.91702 14.7026L4.48034 15.4756L5.23034 16.7747Z" stroke="white" stroke-linecap="round" stroke-linejoin="round"/>
</svg>
